 <svg  version="1.0" xmlns="http://www.w3.org/2000/svg"  width="300.000000pt" height="197.000000pt" viewBox="0 0 300.000000 197.000000"  preserveAspectRatio="xMidYMid meet">  <g transform="translate(0.000000,197.000000) scale(0.100000,-0.100000)" fill="#ffffff" stroke="none"> <path d="M745 1163 c-4 -69 -5 -161 -1 -203 l6 -77 -31 -7 c-17 -3 -56 -6 -85 -6 -41 0 -54 -4 -54 -15 0 -13 33 -15 234 -15 129 0 237 4 240 9 3 4 -3 16 -14 26 -17 16 -35 17 -144 13 -79 -3 -123 -1 -119 5 3 5 10 85 14 178 9 171 3 219 -25 219 -11 0 -16 -27 -21 -127z"/> <path d="M1370 1283 c-102 -17 -180 -56 -180 -91 0 -16 -1 -16 95 18 118 43 307 37 350 -10 35 -39 -18 -74 -140 -91 -85 -11 -108 -8 -99 16 7 17 -14 75 -27 75 -18 0 -29 -89 -21 -169 11 -99 42 -90 44 12 l1 45 36 -5 c148 -20 203 -41 209 -80 2 -16 -6 -27 -30 -40 -28 -15 -58 -18 -212 -18 -130 0 -180 -3 -183 -12 -7 -21 78 -37 207 -37 148 -1 189 6 230 40 51 43 35 123 -27 139 -26 6 -27 7 -8 17 76 41 95 99 47 148 -42 42 -179 62 -292 43z"/> <path d="M2156 1169 c-3 -17 -6 -78 -6 -135 0 -79 4 -106 15 -118 20 -19 42 -11 60 23 9 17 14 20 15 10 0 -9 7 -22 15 -29 19 -15 65 -5 65 15 0 17 16 20 25 5 14 -23 37 -7 60 42 13 28 21 56 18 61 -8 13 -19 -3 -33 -45 -18 -57 -32 -47 -28 20 2 48 0 57 -14 57 -9 0 -20 4 -24 8 -13 13 -51 7 -66 -10 -8 -10 -23 -40 -33 -68 -32 -90 -38 -78 -32 63 4 121 3 132 -13 132 -12 0 -20 -10 -24 -31z m164 -153 c0 -52 -33 -105 -46 -73 -9 24 1 94 16 112 19 23 30 8 30 -39z"/> <path d="M1863 1163 c-7 -3 -13 -13 -13 -24 0 -12 -5 -16 -14 -13 -8 3 -17 0 -21 -6 -4 -7 1 -14 13 -17 17 -4 20 -11 15 -41 -7 -45 -25 -81 -51 -106 -26 -23 -42 -14 -42 24 0 22 6 30 30 39 24 8 30 16 30 40 0 37 -34 65 -60 51 -35 -19 -53 -127 -30 -171 17 -31 66 -25 101 12 l29 31 0 -26 c0 -39 28 -45 56 -13 20 24 22 24 27 6 3 -10 12 -22 21 -25 19 -7 56 22 56 44 0 13 3 13 18 -1 44 -40 102 -6 102 59 0 37 -26 64 -64 64 -23 0 -30 -8 -56 -65 -16 -36 -32 -65 -35 -65 -3 0 -5 31 -5 69 0 60 2 69 20 74 23 6 27 27 5 27 -8 0 -15 6 -15 14 0 30 -46 24 -49 -6 -1 -5 -3 -8 -6 -8 -3 0 -12 0 -20 0 -8 0 -15 6 -15 14 0 18 -11 25 -27 19z m67 -94 c0 -34 -28 -109 -41 -109 -10 0 -12 93 -3 126 9 33 44 20 44 -17z m-154 -26 c-14 -14 -23 4 -13 27 l10 25 5 -23 c2 -13 1 -26 -2 -29z m312 -18 c4 -48 -13 -68 -29 -32 -13 30 -4 80 14 74 7 -2 13 -21 15 -42z"/> <path d="M924 1065 c-18 -28 -21 -103 -4 -134 14 -27 56 -28 72 -2 9 15 16 17 25 9 7 -5 20 -8 28 -4 22 8 60 95 47 108 -6 6 -14 -3 -22 -29 -20 -62 -25 -61 -30 2 -4 47 -9 60 -22 60 -9 0 -20 4 -24 8 -16 16 -54 6 -70 -18z m71 -25 c7 -22 -11 -96 -25 -105 -20 -12 -32 39 -20 83 11 44 34 56 45 22z"/> <path d="M893 750 c0 -25 2 -35 4 -22 2 12 2 32 0 45 -2 12 -4 2 -4 -23z"/> <path d="M980 778 c0 -5 7 -8 16 -8 15 0 15 -2 0 -25 -21 -32 -20 -35 9 -35 14 0 25 5 25 10 0 6 -7 10 -16 10 -14 0 -14 2 0 22 21 30 20 33 -9 33 -14 0 -25 -3 -25 -7z"/> <path d="M1110 778 c0 -5 7 -8 16 -8 14 0 14 -2 0 -22 -22 -31 -20 -38 9 -38 14 0 25 5 25 10 0 6 -7 10 -16 10 -14 0 -14 2 0 22 21 30 20 33 -9 33 -14 0 -25 -3 -25 -7z"/> <path d="M1484 751 c1 -34 3 -36 35 -38 23 -1 30 2 23 9 -6 6 -8 17 -5 24 3 8 1 14 -5 14 -5 0 -12 -9 -15 -21 -3 -12 -10 -18 -17 -14 -8 5 -8 11 1 21 6 8 8 14 3 15 -5 0 0 4 11 8 18 7 17 8 -6 13 -24 4 -26 2 -25 -31z"/> <path d="M1993 750 c0 -25 2 -35 4 -22 2 12 2 32 0 45 -2 12 -4 2 -4 -23z"/> <path d="M2080 751 c0 -34 3 -41 20 -41 11 0 20 5 20 10 0 6 -6 10 -14 10 -9 0 -12 8 -9 24 3 13 0 27 -6 30 -7 5 -11 -7 -11 -33z"/> <path d="M2202 753 c-2 -37 1 -43 18 -43 11 0 20 5 20 10 0 6 -6 10 -14 10 -9 0 -16 13 -19 33 -3 28 -4 26 -5 -10z"/> <path d="M760 745 c0 -19 5 -35 10 -35 6 0 10 7 10 15 0 8 7 15 15 15 8 0 15 9 15 20 0 15 -7 20 -25 20 -22 0 -25 -4 -25 -35z m40 15 c0 -5 -4 -10 -10 -10 -5 0 -10 5 -10 10 0 6 5 10 10 10 6 0 10 -4 10 -10z"/> <path d="M1247 745 c-9 -19 -12 -35 -7 -35 6 0 10 5 10 10 0 6 9 10 20 10 11 0 20 -4 20 -10 0 -5 4 -10 10 -10 5 0 2 16 -7 35 -9 19 -20 35 -23 35 -3 0 -14 -16 -23 -35z m33 5 c0 -5 -4 -10 -10 -10 -5 0 -10 5 -10 10 0 6 5 10 10 10 6 0 10 -4 10 -10z"/> <path d="M1720 761 c-7 -15 -6 -23 6 -35 21 -22 41 -20 54 4 9 17 8 20 -12 20 -19 0 -20 -2 -8 -10 12 -8 10 -10 -8 -10 -32 0 -25 32 8 41 l25 7 -27 1 c-17 1 -31 -6 -38 -18z"/> <path d="M1861 743 c1 -21 3 -30 6 -20 6 21 12 22 28 0 11 -15 13 -13 11 17 -1 28 -6 36 -24 38 -20 3 -22 -1 -21 -35z m34 17 c3 -5 -1 -10 -9 -10 -9 0 -16 5 -16 10 0 6 4 10 9 10 6 0 13 -4 16 -10z"/> </g> </svg> 